<mxfile host="app.diagrams.net" modified="2020-10-31T13:31:30.886Z" agent="5.0 (X11)" etag="Po8xtv3HKPmuBT4pw6Vc" version="13.8.3" type="github" pages="2">
  <diagram id="6YZgfYD54lgICNXOSClO" name="Page-1">
    <mxGraphModel dx="1896" dy="1713" grid="1" gridSize="10" guides="1" tooltips="1" connect="1" arrows="1" fold="1" page="1" pageScale="1" pageWidth="850" pageHeight="1100" math="0" shadow="0">
      <root>
        <mxCell id="0" />
        <mxCell id="1" parent="0" />
        <mxCell id="LUAZlB9GY4TvRt2_GT7k-19" value="" style="rounded=0;whiteSpace=wrap;html=1;shadow=1;fillColor=#ffffff;" parent="1" vertex="1">
          <mxGeometry x="150" y="80" width="650" height="390" as="geometry" />
        </mxCell>
        <mxCell id="LUAZlB9GY4TvRt2_GT7k-15" value="" style="rounded=0;whiteSpace=wrap;html=1;shadow=1;fillColor=#ffffff;" parent="1" vertex="1">
          <mxGeometry x="-10" y="110" width="120" height="340" as="geometry" />
        </mxCell>
        <mxCell id="aIGsuu7PZGqgF0DpAvw9-4" style="edgeStyle=orthogonalEdgeStyle;rounded=0;orthogonalLoop=1;jettySize=auto;html=1;exitX=0.825;exitY=0.5;exitDx=0;exitDy=0;exitPerimeter=0;entryX=0.175;entryY=0.5;entryDx=0;entryDy=0;entryPerimeter=0;" edge="1" parent="1" source="LUAZlB9GY4TvRt2_GT7k-1" target="aIGsuu7PZGqgF0DpAvw9-3">
          <mxGeometry relative="1" as="geometry" />
        </mxCell>
        <mxCell id="LUAZlB9GY4TvRt2_GT7k-1" value="Cloud IoT&#xa;Core" style="html=1;fillColor=#5184F3;strokeColor=none;verticalAlign=top;labelPosition=center;verticalLabelPosition=bottom;align=center;spacingTop=-6;fontSize=11;fontStyle=1;fontColor=#999999;shape=mxgraph.gcp2.hexIcon;prIcon=cloud_iot_core" parent="1" vertex="1">
          <mxGeometry x="220" y="230" width="66" height="58.5" as="geometry" />
        </mxCell>
        <mxCell id="LUAZlB9GY4TvRt2_GT7k-16" style="edgeStyle=orthogonalEdgeStyle;rounded=0;orthogonalLoop=1;jettySize=auto;html=1;exitX=1;exitY=0.5;exitDx=0;exitDy=0;exitPerimeter=0;entryX=0.175;entryY=0.5;entryDx=0;entryDy=0;entryPerimeter=0;" parent="1" source="LUAZlB9GY4TvRt2_GT7k-2" target="LUAZlB9GY4TvRt2_GT7k-1" edge="1">
          <mxGeometry relative="1" as="geometry">
            <Array as="points">
              <mxPoint x="140" y="170" />
              <mxPoint x="140" y="259" />
            </Array>
          </mxGeometry>
        </mxCell>
        <mxCell id="LUAZlB9GY4TvRt2_GT7k-2" value="&lt;div&gt;Humidity&lt;/div&gt;&lt;div&gt;Sensors&lt;br&gt;&lt;/div&gt;" style="outlineConnect=0;dashed=0;verticalLabelPosition=bottom;verticalAlign=top;align=center;html=1;shape=mxgraph.aws3.alexa_enabled_device;fillColor=#5294CF;gradientColor=none;shadow=1;" parent="1" vertex="1">
          <mxGeometry x="30" y="150" width="40" height="40" as="geometry" />
        </mxCell>
        <mxCell id="LUAZlB9GY4TvRt2_GT7k-17" style="edgeStyle=orthogonalEdgeStyle;rounded=0;orthogonalLoop=1;jettySize=auto;html=1;exitX=1;exitY=0.5;exitDx=0;exitDy=0;exitPerimeter=0;entryX=0.175;entryY=0.5;entryDx=0;entryDy=0;entryPerimeter=0;" parent="1" source="LUAZlB9GY4TvRt2_GT7k-4" target="LUAZlB9GY4TvRt2_GT7k-1" edge="1">
          <mxGeometry relative="1" as="geometry" />
        </mxCell>
        <mxCell id="LUAZlB9GY4TvRt2_GT7k-4" value="Temperature&lt;div&gt;Sensors&lt;br&gt;&lt;/div&gt;" style="outlineConnect=0;dashed=0;verticalLabelPosition=bottom;verticalAlign=top;align=center;html=1;shape=mxgraph.aws3.alexa_enabled_device;gradientColor=none;fillColor=#FF6666;" parent="1" vertex="1">
          <mxGeometry x="30" y="239.25" width="40" height="40" as="geometry" />
        </mxCell>
        <mxCell id="LUAZlB9GY4TvRt2_GT7k-18" style="edgeStyle=orthogonalEdgeStyle;rounded=0;orthogonalLoop=1;jettySize=auto;html=1;exitX=1;exitY=0.5;exitDx=0;exitDy=0;exitPerimeter=0;entryX=0.175;entryY=0.5;entryDx=0;entryDy=0;entryPerimeter=0;" parent="1" source="LUAZlB9GY4TvRt2_GT7k-6" target="LUAZlB9GY4TvRt2_GT7k-1" edge="1">
          <mxGeometry relative="1" as="geometry">
            <Array as="points">
              <mxPoint x="140" y="360" />
              <mxPoint x="140" y="259" />
            </Array>
          </mxGeometry>
        </mxCell>
        <mxCell id="LUAZlB9GY4TvRt2_GT7k-6" value="pH&lt;div&gt;Sensors&lt;br&gt;&lt;/div&gt;" style="outlineConnect=0;dashed=0;verticalLabelPosition=bottom;verticalAlign=top;align=center;html=1;shape=mxgraph.aws3.alexa_enabled_device;gradientColor=none;fillColor=#FF6666;" parent="1" vertex="1">
          <mxGeometry x="30" y="340" width="40" height="40" as="geometry" />
        </mxCell>
        <mxCell id="LUAZlB9GY4TvRt2_GT7k-20" style="edgeStyle=orthogonalEdgeStyle;rounded=0;orthogonalLoop=1;jettySize=auto;html=1;exitX=0.5;exitY=1;exitDx=0;exitDy=0;entryX=0.5;entryY=0.16;entryDx=0;entryDy=0;entryPerimeter=0;" parent="1" source="LUAZlB9GY4TvRt2_GT7k-12" target="LUAZlB9GY4TvRt2_GT7k-1" edge="1">
          <mxGeometry relative="1" as="geometry" />
        </mxCell>
        <mxCell id="LUAZlB9GY4TvRt2_GT7k-12" value="Device Registration Admin" style="rounded=0;whiteSpace=wrap;html=1;shadow=1;dashed=1;" parent="1" vertex="1">
          <mxGeometry x="193" y="100" width="120" height="60" as="geometry" />
        </mxCell>
        <mxCell id="LUAZlB9GY4TvRt2_GT7k-21" style="edgeStyle=orthogonalEdgeStyle;rounded=0;orthogonalLoop=1;jettySize=auto;html=1;exitX=0.5;exitY=0.5;exitDx=0;exitDy=0;exitPerimeter=0;" parent="1" source="LUAZlB9GY4TvRt2_GT7k-13" target="LUAZlB9GY4TvRt2_GT7k-12" edge="1">
          <mxGeometry relative="1" as="geometry" />
        </mxCell>
        <mxCell id="LUAZlB9GY4TvRt2_GT7k-22" value="" style="edgeStyle=orthogonalEdgeStyle;rounded=0;orthogonalLoop=1;jettySize=auto;html=1;" parent="1" source="LUAZlB9GY4TvRt2_GT7k-13" target="LUAZlB9GY4TvRt2_GT7k-12" edge="1">
          <mxGeometry relative="1" as="geometry" />
        </mxCell>
        <mxCell id="LUAZlB9GY4TvRt2_GT7k-13" value="Device Manager" style="shape=umlActor;verticalLabelPosition=bottom;verticalAlign=top;html=1;outlineConnect=0;shadow=1;fillColor=#ffffff;" parent="1" vertex="1">
          <mxGeometry x="238" y="-30" width="30" height="60" as="geometry" />
        </mxCell>
        <mxCell id="aIGsuu7PZGqgF0DpAvw9-1" value="BigQuery" style="html=1;fillColor=#5184F3;strokeColor=none;verticalAlign=top;labelPosition=center;verticalLabelPosition=bottom;align=center;spacingTop=-6;fontSize=11;fontStyle=1;fontColor=#999999;shape=mxgraph.gcp2.hexIcon;prIcon=bigquery;shadow=1;dashed=1;" vertex="1" parent="1">
          <mxGeometry x="600" y="230" width="66" height="58.5" as="geometry" />
        </mxCell>
        <mxCell id="aIGsuu7PZGqgF0DpAvw9-6" style="edgeStyle=orthogonalEdgeStyle;rounded=0;orthogonalLoop=1;jettySize=auto;html=1;exitX=0.825;exitY=0.5;exitDx=0;exitDy=0;exitPerimeter=0;entryX=0.175;entryY=0.5;entryDx=0;entryDy=0;entryPerimeter=0;" edge="1" parent="1" source="aIGsuu7PZGqgF0DpAvw9-2" target="aIGsuu7PZGqgF0DpAvw9-1">
          <mxGeometry relative="1" as="geometry" />
        </mxCell>
        <mxCell id="aIGsuu7PZGqgF0DpAvw9-8" style="edgeStyle=orthogonalEdgeStyle;rounded=0;orthogonalLoop=1;jettySize=auto;html=1;exitX=0.5;exitY=0.16;exitDx=0;exitDy=0;exitPerimeter=0;" edge="1" parent="1" source="aIGsuu7PZGqgF0DpAvw9-2" target="aIGsuu7PZGqgF0DpAvw9-7">
          <mxGeometry relative="1" as="geometry" />
        </mxCell>
        <mxCell id="aIGsuu7PZGqgF0DpAvw9-2" value="Cloud&#xa;Dataflow" style="html=1;fillColor=#5184F3;strokeColor=none;verticalAlign=top;labelPosition=center;verticalLabelPosition=bottom;align=center;spacingTop=-6;fontSize=11;fontStyle=1;fontColor=#999999;shape=mxgraph.gcp2.hexIcon;prIcon=cloud_dataflow;shadow=1;dashed=1;" vertex="1" parent="1">
          <mxGeometry x="470" y="230" width="66" height="58.5" as="geometry" />
        </mxCell>
        <mxCell id="aIGsuu7PZGqgF0DpAvw9-5" style="edgeStyle=orthogonalEdgeStyle;rounded=0;orthogonalLoop=1;jettySize=auto;html=1;exitX=0.825;exitY=0.5;exitDx=0;exitDy=0;exitPerimeter=0;entryX=0.175;entryY=0.5;entryDx=0;entryDy=0;entryPerimeter=0;" edge="1" parent="1" source="aIGsuu7PZGqgF0DpAvw9-3" target="aIGsuu7PZGqgF0DpAvw9-2">
          <mxGeometry relative="1" as="geometry" />
        </mxCell>
        <mxCell id="aIGsuu7PZGqgF0DpAvw9-3" value="Cloud&#xa;Pub/Sub" style="html=1;fillColor=#5184F3;strokeColor=none;verticalAlign=top;labelPosition=center;verticalLabelPosition=bottom;align=center;spacingTop=-6;fontSize=11;fontStyle=1;fontColor=#999999;shape=mxgraph.gcp2.hexIcon;prIcon=cloud_pubsub;shadow=1;dashed=1;" vertex="1" parent="1">
          <mxGeometry x="340" y="230" width="66" height="58.5" as="geometry" />
        </mxCell>
        <mxCell id="aIGsuu7PZGqgF0DpAvw9-7" value="Stackdriver" style="html=1;fillColor=#5184F3;strokeColor=none;verticalAlign=top;labelPosition=center;verticalLabelPosition=bottom;align=center;spacingTop=-6;fontSize=11;fontStyle=1;fontColor=#999999;shape=mxgraph.gcp2.hexIcon;prIcon=stackdriver;shadow=1;dashed=1;" vertex="1" parent="1">
          <mxGeometry x="470" y="100" width="66" height="58.5" as="geometry" />
        </mxCell>
        <mxCell id="aIGsuu7PZGqgF0DpAvw9-10" value="" style="rounded=0;whiteSpace=wrap;html=1;shadow=1;dashed=1;fillColor=#ffffff;" vertex="1" parent="1">
          <mxGeometry x="573" y="99.25" width="120" height="60" as="geometry" />
        </mxCell>
      </root>
    </mxGraphModel>
  </diagram>
  <diagram id="VKgi6bkSFj8dvd0eNZsd" name="Page-2">
    <mxGraphModel dx="1046" dy="613" grid="1" gridSize="10" guides="1" tooltips="1" connect="1" arrows="1" fold="1" page="1" pageScale="1" pageWidth="850" pageHeight="1100" math="0" shadow="0">
      <root>
        <mxCell id="SfYpkvx_XkUfN46bOGZN-0" />
        <mxCell id="SfYpkvx_XkUfN46bOGZN-1" parent="SfYpkvx_XkUfN46bOGZN-0" />
        <mxCell id="SfYpkvx_XkUfN46bOGZN-3" value="" style="shape=image;html=1;verticalAlign=top;verticalLabelPosition=bottom;labelBackgroundColor=#ffffff;imageAspect=0;aspect=fixed;image=https://cdn1.iconfinder.com/data/icons/icons-for-a-site-1/64/advantage_eco_friendly-128.png;shadow=1;dashed=1;fillColor=#ffffff;" vertex="1" parent="SfYpkvx_XkUfN46bOGZN-1">
          <mxGeometry x="30" y="220" width="128" height="128" as="geometry" />
        </mxCell>
        <mxCell id="SfYpkvx_XkUfN46bOGZN-9" style="edgeStyle=orthogonalEdgeStyle;rounded=0;orthogonalLoop=1;jettySize=auto;html=1;exitX=0.5;exitY=0;exitDx=0;exitDy=0;exitPerimeter=0;" edge="1" parent="SfYpkvx_XkUfN46bOGZN-1" source="SfYpkvx_XkUfN46bOGZN-5" target="SfYpkvx_XkUfN46bOGZN-7">
          <mxGeometry relative="1" as="geometry" />
        </mxCell>
        <mxCell id="SfYpkvx_XkUfN46bOGZN-5" value="" style="verticalLabelPosition=bottom;html=1;fillColor=#6ABD46;strokeColor=#ffffff;verticalAlign=top;align=center;points=[[0.085,0.085,0],[0.915,0.085,0],[0.915,0.915,0],[0.085,0.915,0],[0.25,0,0],[0.5,0,0],[0.75,0,0],[1,0.25,0],[1,0.5,0],[1,0.75,0],[0.75,1,0],[0.5,1,0],[0.25,1,0],[0,0.75,0],[0,0.5,0],[0,0.25,0]];pointerEvents=1;shape=mxgraph.cisco_safe.compositeIcon;bgIcon=mxgraph.cisco_safe.architecture.generic_appliance;resIcon=mxgraph.cisco_safe.architecture.sensor;shadow=1;dashed=1;" vertex="1" parent="SfYpkvx_XkUfN46bOGZN-1">
          <mxGeometry x="108" y="310" width="50" height="50" as="geometry" />
        </mxCell>
        <mxCell id="SfYpkvx_XkUfN46bOGZN-6" value="" style="html=1;verticalLabelPosition=bottom;align=center;labelBackgroundColor=#ffffff;verticalAlign=top;strokeWidth=2;strokeColor=#0080F0;shadow=0;dashed=0;shape=mxgraph.ios7.icons.wifi;pointerEvents=1;fillColor=#ffffff;" vertex="1" parent="SfYpkvx_XkUfN46bOGZN-1">
          <mxGeometry x="140" y="300" width="29.7" height="21" as="geometry" />
        </mxCell>
        <mxCell id="SfYpkvx_XkUfN46bOGZN-17" style="edgeStyle=orthogonalEdgeStyle;rounded=0;orthogonalLoop=1;jettySize=auto;html=1;exitX=1;exitY=0.75;exitDx=0;exitDy=0;entryX=0.175;entryY=0.5;entryDx=0;entryDy=0;entryPerimeter=0;" edge="1" parent="SfYpkvx_XkUfN46bOGZN-1" source="SfYpkvx_XkUfN46bOGZN-7" target="SfYpkvx_XkUfN46bOGZN-16">
          <mxGeometry relative="1" as="geometry" />
        </mxCell>
        <mxCell id="SfYpkvx_XkUfN46bOGZN-7" value="" style="image;html=1;image=img/lib/clip_art/networking/Wireless_Router_128x128.png;shadow=1;dashed=1;fillColor=#ffffff;" vertex="1" parent="SfYpkvx_XkUfN46bOGZN-1">
          <mxGeometry x="200" y="241" width="80" height="79" as="geometry" />
        </mxCell>
        <mxCell id="SfYpkvx_XkUfN46bOGZN-8" value="" style="html=1;verticalLabelPosition=bottom;align=center;labelBackgroundColor=#ffffff;verticalAlign=top;strokeWidth=2;strokeColor=#0080F0;shadow=0;dashed=0;shape=mxgraph.ios7.icons.wifi;pointerEvents=1;fillColor=#ffffff;" vertex="1" parent="SfYpkvx_XkUfN46bOGZN-1">
          <mxGeometry x="260" y="240" width="29.7" height="21" as="geometry" />
        </mxCell>
        <mxCell id="SfYpkvx_XkUfN46bOGZN-21" value="" style="edgeStyle=orthogonalEdgeStyle;rounded=0;orthogonalLoop=1;jettySize=auto;html=1;" edge="1" parent="SfYpkvx_XkUfN46bOGZN-1" source="SfYpkvx_XkUfN46bOGZN-10" target="SfYpkvx_XkUfN46bOGZN-15">
          <mxGeometry relative="1" as="geometry" />
        </mxCell>
        <mxCell id="SfYpkvx_XkUfN46bOGZN-10" value="" style="pointerEvents=1;shadow=0;dashed=0;html=1;strokeColor=none;aspect=fixed;labelPosition=center;verticalLabelPosition=bottom;verticalAlign=top;align=center;outlineConnect=0;shape=mxgraph.vvd.nsx_dashboard;fillColor=#3399FF;" vertex="1" parent="SfYpkvx_XkUfN46bOGZN-1">
          <mxGeometry x="688" y="80" width="50" height="46.5" as="geometry" />
        </mxCell>
        <mxCell id="SfYpkvx_XkUfN46bOGZN-12" value="BigQuery" style="html=1;fillColor=#5184F3;strokeColor=none;verticalAlign=top;labelPosition=center;verticalLabelPosition=bottom;align=center;spacingTop=-6;fontSize=11;fontStyle=1;fontColor=#999999;shape=mxgraph.gcp2.hexIcon;prIcon=bigquery;shadow=1;dashed=1;" vertex="1" parent="SfYpkvx_XkUfN46bOGZN-1">
          <mxGeometry x="680" y="271" width="66" height="58.5" as="geometry" />
        </mxCell>
        <mxCell id="SfYpkvx_XkUfN46bOGZN-19" style="edgeStyle=orthogonalEdgeStyle;rounded=0;orthogonalLoop=1;jettySize=auto;html=1;exitX=0.825;exitY=0.5;exitDx=0;exitDy=0;exitPerimeter=0;entryX=0.175;entryY=0.5;entryDx=0;entryDy=0;entryPerimeter=0;" edge="1" parent="SfYpkvx_XkUfN46bOGZN-1" source="SfYpkvx_XkUfN46bOGZN-13" target="SfYpkvx_XkUfN46bOGZN-14">
          <mxGeometry relative="1" as="geometry" />
        </mxCell>
        <mxCell id="SfYpkvx_XkUfN46bOGZN-13" value="Cloud&#xa;Pub/Sub" style="html=1;fillColor=#5184F3;strokeColor=none;verticalAlign=top;labelPosition=center;verticalLabelPosition=bottom;align=center;spacingTop=-6;fontSize=11;fontStyle=1;fontColor=#999999;shape=mxgraph.gcp2.hexIcon;prIcon=cloud_pubsub;shadow=1;dashed=1;" vertex="1" parent="SfYpkvx_XkUfN46bOGZN-1">
          <mxGeometry x="450" y="271" width="66" height="58.5" as="geometry" />
        </mxCell>
        <mxCell id="SfYpkvx_XkUfN46bOGZN-20" style="edgeStyle=orthogonalEdgeStyle;rounded=0;orthogonalLoop=1;jettySize=auto;html=1;exitX=0.825;exitY=0.5;exitDx=0;exitDy=0;exitPerimeter=0;entryX=0.175;entryY=0.5;entryDx=0;entryDy=0;entryPerimeter=0;" edge="1" parent="SfYpkvx_XkUfN46bOGZN-1" source="SfYpkvx_XkUfN46bOGZN-14" target="SfYpkvx_XkUfN46bOGZN-12">
          <mxGeometry relative="1" as="geometry" />
        </mxCell>
        <mxCell id="SfYpkvx_XkUfN46bOGZN-14" value="Cloud&#xa;Dataflow" style="html=1;fillColor=#5184F3;strokeColor=none;verticalAlign=top;labelPosition=center;verticalLabelPosition=bottom;align=center;spacingTop=-6;fontSize=11;fontStyle=1;fontColor=#999999;shape=mxgraph.gcp2.hexIcon;prIcon=cloud_dataflow;shadow=1;dashed=1;" vertex="1" parent="SfYpkvx_XkUfN46bOGZN-1">
          <mxGeometry x="574" y="271" width="66" height="58.5" as="geometry" />
        </mxCell>
        <mxCell id="SfYpkvx_XkUfN46bOGZN-22" value="" style="edgeStyle=orthogonalEdgeStyle;rounded=0;orthogonalLoop=1;jettySize=auto;html=1;" edge="1" parent="SfYpkvx_XkUfN46bOGZN-1" source="SfYpkvx_XkUfN46bOGZN-15" target="SfYpkvx_XkUfN46bOGZN-12">
          <mxGeometry relative="1" as="geometry" />
        </mxCell>
        <mxCell id="SfYpkvx_XkUfN46bOGZN-15" value="Cloud&#xa;Datalab" style="html=1;fillColor=#5184F3;strokeColor=none;verticalAlign=top;labelPosition=center;verticalLabelPosition=bottom;align=center;spacingTop=-6;fontSize=11;fontStyle=1;fontColor=#999999;shape=mxgraph.gcp2.hexIcon;prIcon=cloud_datalab;shadow=1;dashed=1;" vertex="1" parent="SfYpkvx_XkUfN46bOGZN-1">
          <mxGeometry x="680" y="170" width="66" height="58.5" as="geometry" />
        </mxCell>
        <mxCell id="SfYpkvx_XkUfN46bOGZN-18" style="edgeStyle=orthogonalEdgeStyle;rounded=0;orthogonalLoop=1;jettySize=auto;html=1;exitX=0.825;exitY=0.5;exitDx=0;exitDy=0;exitPerimeter=0;entryX=0.175;entryY=0.5;entryDx=0;entryDy=0;entryPerimeter=0;" edge="1" parent="SfYpkvx_XkUfN46bOGZN-1" source="SfYpkvx_XkUfN46bOGZN-16" target="SfYpkvx_XkUfN46bOGZN-13">
          <mxGeometry relative="1" as="geometry" />
        </mxCell>
        <mxCell id="SfYpkvx_XkUfN46bOGZN-16" value="Cloud IoT&#xa;Core" style="html=1;fillColor=#5184F3;strokeColor=none;verticalAlign=top;labelPosition=center;verticalLabelPosition=bottom;align=center;spacingTop=-6;fontSize=11;fontStyle=1;fontColor=#999999;shape=mxgraph.gcp2.hexIcon;prIcon=cloud_iot_core;shadow=1;dashed=1;" vertex="1" parent="SfYpkvx_XkUfN46bOGZN-1">
          <mxGeometry x="340" y="271" width="66" height="58.5" as="geometry" />
        </mxCell>
        <mxCell id="SfYpkvx_XkUfN46bOGZN-23" value="" style="rounded=0;whiteSpace=wrap;html=1;shadow=0;fillColor=none;dashed=1;dashPattern=1 4;" vertex="1" parent="SfYpkvx_XkUfN46bOGZN-1">
          <mxGeometry x="10" y="168.5" width="300" height="251.5" as="geometry" />
        </mxCell>
        <mxCell id="SfYpkvx_XkUfN46bOGZN-24" value="" style="rounded=0;whiteSpace=wrap;html=1;shadow=0;fillColor=none;dashed=1;dashPattern=1 4;" vertex="1" parent="SfYpkvx_XkUfN46bOGZN-1">
          <mxGeometry x="310" y="260" width="450" height="160" as="geometry" />
        </mxCell>
        <mxCell id="SfYpkvx_XkUfN46bOGZN-25" value="" style="rounded=0;whiteSpace=wrap;html=1;shadow=0;fillColor=none;dashed=1;dashPattern=1 4;" vertex="1" parent="SfYpkvx_XkUfN46bOGZN-1">
          <mxGeometry x="660" y="150" width="100" height="111" as="geometry" />
        </mxCell>
        <mxCell id="SfYpkvx_XkUfN46bOGZN-26" value="" style="aspect=fixed;html=1;points=[];align=center;image;fontSize=12;image=img/lib/mscae/Person.svg;shadow=0;dashed=1;dashPattern=1 4;strokeColor=#000000;fillColor=none;" vertex="1" parent="SfYpkvx_XkUfN46bOGZN-1">
          <mxGeometry x="750" y="50" width="37" height="50" as="geometry" />
        </mxCell>
      </root>
    </mxGraphModel>
  </diagram>
</mxfile>
